# xmcd
#
# Track frame offsets: 
#        150
#        17546
#        35817
#        48585
#        68143
#        87992
#        101262
#        121677
#        137396
#        159090
#        178506
#
# Disc length: 2718 seconds
#
# Revision: 1
# Processed by: cddbd v1.5.2PL0 Copyright (c) Steve Scherf et al.
# Submitted via: ExactAudioCopy v0.99pb5
#
DISCID=7e0a9c0b
DTITLE=The Church - Gold Afternoon Fix (bonus disc)
DYEAR=2005
DGENRE=Rock
TTITLE0=Much Too Much
TTITLE1=Take It Back
TTITLE2=Desert
TTITLE3=Forgotten Reign
TTITLE4=Hunter
TTITLE5=Dream
TTITLE6=Ride Into the Sunset
TTITLE7=You Got Off Light
TTITLE8=The Feast
TTITLE9=Metropolis (acoustic)
TTITLE10=Grind (acoustic)
EXTD=
EXTT0=
EXTT1=
EXTT2=
EXTT3=
EXTT4=
EXTT5=
EXTT6=
EXTT7=
EXTT8=
EXTT9=
EXTT10=
PLAYORDER=
